<svg id="Capa_1" data-name="Capa 1" xmlns="http://www.w3.org/2000/svg" viewBox="0 0 150 150"><defs><style>.cls-1{fill:#4c8db3;}.cls-2{fill:#898989;}.cls-3{fill:#fff;}</style></defs><path class="cls-1" d="M42.3,130.3l-.54-.17Z"/><path class="cls-1" d="M77.17,133.62l-.51.06Z"/><path class="cls-1" d="M73.3,133.94l-1.4.08Z"/><path class="cls-2" d="M76.66,133.68c-1.11.11-2.24.19-3.36.26C74.42,133.87,75.54,133.79,76.66,133.68Z"/><path class="cls-2" d="M41.76,130.13c-.79-.25-1.56-.52-2.34-.79C40.2,129.61,41,129.88,41.76,130.13Z"/><path class="cls-2" d="M71.9,134c-.86,0-1.72,0-2.59.06C70.18,134.07,71,134.06,71.9,134Z"/><path class="cls-2" d="M15.12,116.33l-.62-.49A2.39,2.39,0,0,0,15.12,116.33Z"/><path class="cls-3" d="M123.49,98.47l0,0-.12-.15a.88.88,0,0,1-.12-.15.83.83,0,0,1-.11-.15l-.46-.6a.61.61,0,0,1-.07-.14c-1.33-1.69-2.68-3.37-4-5s-1.38-1.69-3-.16a42.05,42.05,0,0,1-9,6.58c-10.44,5.53-24.38,2.87-30.08-10.74a36.36,36.36,0,0,1,0-29.13c6.61-15.62,25.83-16.71,35.68-6.52,1.14,1.18,2.39,2.25,3.57,3.38.86.82,1.54.62,2.2-.29a73.17,73.17,0,0,0,5.1-8,2.89,2.89,0,0,0-.56-3.54,28,28,0,0,0-13.41-9.32c-11-3.41-21.69-3-31.73,3.08A35.82,35.82,0,0,0,64,52.62c-4.27,8.54-5.16,17.64-4.27,27a41.35,41.35,0,0,0,7.4,20.47c5.94,8.34,13.91,13.24,24.2,14.33a44.58,44.58,0,0,0,14.48-1c.21-.09.3,0,.3.07l.28-.13a6.57,6.57,0,0,1,1.76-.87h0a67.68,67.68,0,0,0,15.44-13.89Z"/><path class="cls-3" d="M51,34.1c0-1.16-.47-1.66-1.61-1.57a80.27,80.27,0,0,1-12.21,0c-1.44-.12-1.85.74-1.85,2.07,0,6.81.52,13.61.86,20.41a341.53,341.53,0,0,1,.1,36.06c-.25,4.49-1,8.9-3.62,12.72-1.59,2.27-3.8,3.91-5.79,5.78a.9.9,0,0,1-.39.23c0,.06-.07.12-.11.17a66.88,66.88,0,0,0,13.24,7.76l.49-.25c-.15-.24-.18-.54.13-1C46.37,110,48.92,102,49.78,93.26a151.85,151.85,0,0,0,.46-18.47c-.28-11.69.35-23.35.68-35C51,37.87,50.92,36,51,34.1Z"/></svg>